<?xml version="1.0" standalone="no"?>
<!DOCTYPE svg PUBLIC "-//W3C//DTD SVG 20010904//EN"
 "http://www.w3.org/TR/2001/REC-SVG-20010904/DTD/svg10.dtd">
<svg version="1.0" xmlns="http://www.w3.org/2000/svg"
 width="512.000000pt" height="512.000000pt" viewBox="0 0 512.000000 512.000000"
 preserveAspectRatio="xMidYMid meet">
<metadata>
Created by potrace 1.14, written by Peter Selinger 2001-2017
</metadata>
<g transform="translate(0.000000,512.000000) scale(0.100000,-0.100000)"
fill="#000000" stroke="none">
<path d="M3895 4895 c-174 -83 -535 -176 -930 -240 -216 -35 -205 -32 -205
-58 0 -23 1 -23 113 -20 137 5 470 31 492 39 13 5 15 -18 15 -200 l0 -206
-400 0 c-220 0 -400 -3 -400 -7 0 -4 5 -20 11 -37 l11 -31 389 3 389 3 0 -515
0 -516 23 0 c27 0 147 38 162 52 6 5 8 188 6 493 l-3 485 420 0 c296 0 423 3
428 11 9 16 -169 189 -195 189 -14 0 -39 -23 -73 -65 l-53 -65 -262 0 -263 0
0 218 0 218 213 39 c140 25 240 38 295 38 45 -1 85 4 88 9 7 10 -177 199 -192
197 -5 0 -40 -16 -79 -34z"/>
<path d="M1310 4835 c0 -112 -21 -429 -29 -437 -3 -4 -120 -8 -259 -9 -222 0
-253 -2 -248 -16 3 -8 9 -26 12 -39 6 -23 9 -24 63 -20 142 13 431 17 431 6 0
-6 -7 -75 -16 -153 -33 -305 -93 -527 -176 -655 -55 -86 -180 -210 -290 -290
-58 -42 -85 -68 -81 -78 8 -22 29 -17 122 31 171 88 301 188 378 290 107 140
183 376 232 719 11 76 21 140 23 141 2 2 68 7 147 11 l143 7 -6 -204 c-4 -112
-11 -298 -17 -414 -18 -409 -12 -458 60 -495 57 -29 184 -43 353 -38 185 5
210 14 274 101 24 32 44 66 44 74 0 8 -19 37 -43 63 -54 60 -64 95 -73 243 -6
103 -9 117 -25 117 -14 0 -19 -11 -24 -57 -26 -237 -54 -335 -100 -353 -33
-13 -225 -13 -258 -1 -13 5 -27 20 -30 32 -3 12 1 217 11 455 l16 433 38 17
c20 9 44 24 53 34 13 15 12 19 -13 42 -41 40 -165 128 -179 128 -7 0 -31 -24
-55 -54 -50 -62 -62 -66 -212 -66 l-98 0 7 83 c11 142 26 249 36 268 5 11 23
26 39 34 47 24 37 41 -42 69 -64 22 -185 56 -202 56 -3 0 -6 -34 -6 -75z"/>
<path d="M3108 1829 l5 -209 -87 0 c-47 0 -86 2 -86 5 0 3 18 40 39 83 27 53
48 82 66 90 15 7 25 18 23 25 -4 13 -64 45 -145 76 l-52 20 -11 -57 c-29 -154
-76 -322 -119 -431 -17 -41 -19 -56 -10 -67 6 -8 15 -14 19 -14 4 0 41 47 81
105 l73 105 103 0 103 0 0 -110 0 -110 -256 0 c-230 0 -256 -2 -250 -16 3 -9
9 -26 11 -37 6 -22 7 -22 250 -19 l245 3 0 -115 0 -116 -78 0 c-65 0 -87 5
-137 29 -33 16 -70 32 -82 36 l-23 6 0 -370 c0 -419 -7 -389 80 -350 85 38 80
19 80 321 l0 268 81 0 82 0 -5 -400 c-5 -363 -4 -400 11 -400 23 0 114 44 128
62 10 11 13 107 15 374 l3 359 90 0 90 0 3 -170 c2 -93 0 -185 -3 -202 l-6
-33 -79 0 c-72 0 -80 -2 -80 -19 0 -13 13 -24 39 -34 45 -18 77 -55 86 -98 4
-17 13 -33 21 -36 18 -7 118 40 149 71 l25 25 0 235 0 234 35 21 c19 11 35 27
35 35 0 14 -95 88 -150 116 -23 12 -27 10 -66 -34 l-41 -47 -74 3 -74 3 -3
113 -3 112 223 0 c123 0 229 4 237 9 19 12 2 39 -66 101 -92 84 -96 85 -157
17 l-51 -57 -93 0 -93 0 3 108 3 107 193 3 c208 3 211 4 176 57 -23 35 -123
115 -144 115 -10 0 -36 -25 -59 -55 l-42 -56 -62 3 -62 3 -3 115 c-3 127 1
160 22 160 8 0 24 8 37 19 19 15 21 21 11 34 -12 15 -84 43 -178 70 l-51 15 5
-209z"/>
<path d="M4088 1233 l-3 -807 -33 -7 c-18 -4 -90 0 -159 7 -102 11 -128 12
-135 2 -13 -22 -5 -28 80 -62 99 -40 116 -54 138 -115 10 -25 21 -50 25 -55 9
-10 91 16 177 56 42 20 67 39 77 58 13 25 15 139 15 808 l0 780 25 16 c36 24
32 50 -12 70 -36 15 -169 56 -185 56 -5 0 -9 -363 -10 -807z"/>
<path d="M1374 2009 c-3 -6 12 -30 34 -52 47 -50 75 -102 92 -177 15 -67 34
-90 72 -90 45 0 85 26 113 73 61 105 6 181 -165 225 -107 29 -138 33 -146 21z"/>
<path d="M986 1742 c-21 -76 -59 -132 -125 -186 -92 -76 -112 -126 -66 -171
18 -19 35 -25 70 -25 56 0 92 18 134 66 39 43 52 74 60 134 l6 45 538 3 537 2
0 -22 c0 -41 -29 -132 -44 -140 -9 -5 -36 -36 -62 -69 l-46 -60 -543 3 -543 3
14 -34 c8 -18 14 -34 14 -35 0 0 124 0 275 2 l275 3 0 -370 c0 -204 -3 -371
-7 -371 -41 1 -215 146 -270 225 l-21 30 46 104 c37 85 51 106 74 115 60 22
32 54 -109 125 l-82 41 -6 -48 c-43 -316 -155 -576 -352 -816 -59 -71 -64 -80
-50 -94 14 -14 22 -9 84 45 154 137 294 306 344 416 l12 27 47 -73 c86 -135
221 -247 346 -288 59 -19 297 -49 568 -71 151 -12 160 -11 170 6 49 83 86 110
167 124 35 6 45 12 47 30 l3 22 -208 0 c-218 1 -545 14 -600 26 l-33 7 0 198
0 199 285 0 c284 0 285 0 285 21 0 39 -143 179 -183 179 -17 0 -38 -20 -77
-70 l-53 -71 -126 3 -126 3 -3 163 -2 162 325 0 c379 0 370 -3 260 98 -41 38
-63 65 -60 74 8 20 89 86 120 98 15 6 42 10 61 10 42 0 74 15 74 35 0 35 -165
175 -205 175 -12 -1 -31 -17 -47 -40 l-28 -40 -544 0 -544 0 -9 63 c-7 52 -11
62 -29 65 -18 3 -24 -6 -38 -56z"/>
<path d="M3777 1222 c1 -268 2 -490 2 -494 1 -9 100 20 129 38 l22 14 0 408
c0 406 0 408 22 426 l22 19 -23 18 c-20 16 -142 59 -167 59 -5 0 -8 -207 -7
-488z"/>
</g>
</svg>
